<?xml version="1.0" encoding="UTF-8" standalone="no"?>
<!-- Created with Inkscape (http://www.inkscape.org/) -->

<svg
   width="210mm"
   height="297mm"
   viewBox="0 0 210 297"
   version="1.1"
   id="svg13954"
   xml:space="preserve"
   sodipodi:docname="shaft_tower_hammer_and_t245.svg"
   inkscape:version="1.2.1 (9c6d41e410, 2022-07-14, custom)"
   xmlns:inkscape="http://www.inkscape.org/namespaces/inkscape"
   xmlns:sodipodi="http://sodipodi.sourceforge.net/DTD/sodipodi-0.dtd"
   xmlns="http://www.w3.org/2000/svg"
   xmlns:svg="http://www.w3.org/2000/svg"><sodipodi:namedview
     id="namedview13956"
     pagecolor="#ffffff"
     bordercolor="#999999"
     borderopacity="1"
     inkscape:showpageshadow="0"
     inkscape:pageopacity="0"
     inkscape:pagecheckerboard="true"
     inkscape:deskcolor="#d1d1d1"
     inkscape:document-units="mm"
     showgrid="false"
     inkscape:zoom="0.64693624"
     inkscape:cx="350.88466"
     inkscape:cy="546.4217"
     inkscape:window-width="1444"
     inkscape:window-height="1236"
     inkscape:window-x="0"
     inkscape:window-y="0"
     inkscape:window-maximized="0"
     inkscape:current-layer="layer1" /><defs
     id="defs13951" /><g
     inkscape:label="Layer 1"
     inkscape:groupmode="layer"
     id="layer1"><path
       id="path13970"
       style="fill:#000000;stroke-width:0.187278"
       inkscape:label="shaft_tower"
       d="M 105.2158 40.675037 C 68.741538 40.675037 38.898918 40.713126 38.898918 40.759786 C 38.898918 40.806442 38.979278 41.038396 39.077718 41.275 C 39.176139 41.511606 39.859541 43.601581 40.596488 45.919161 C 41.333436 48.236739 42.423674 51.607615 43.01908 53.410177 C 43.614473 55.212739 44.669751 58.457515 45.364156 60.620589 C 46.058573 62.783662 46.710159 64.658506 46.81213 64.78726 C 46.956176 64.969071 49.199336 65.022872 56.853894 65.028072 C 64.366945 65.033158 66.954367 65.093922 67.739535 65.282837 C 68.719529 65.518622 71.260467 66.509451 71.859696 66.889457 C 72.087868 67.034153 72.152695 67.685588 72.203345 70.360563 C 72.272506 74.008966 72.244128 74.114167 71.13881 74.308643 C 69.75817 74.55156 66.661645 75.90722 64.932471 77.025789 C 61.299051 79.376181 58.154451 83.317615 56.614115 87.45151 C 56.002903 89.091869 55.39549 92.560453 55.38525 94.473303 C 55.377034 95.965293 55.862284 98.832835 56.432731 100.66414 C 56.91862 102.22395 58.333754 105.08205 59.356584 106.56869 C 60.704289 108.52752 63.640088 111.18617 65.818722 112.42104 C 66.255695 112.66872 66.613779 112.97824 66.614539 113.10886 C 66.615894 113.33147 65.888507 115.26025 63.243685 122.04785 C 61.307575 127.01661 60.502385 129.10527 59.416528 131.97386 C 58.831673 133.51892 58.285102 134.95164 58.202132 135.15764 C 58.119133 135.36366 57.79662 136.16433 57.48538 136.93686 C 57.174141 137.70939 56.651505 139.05753 56.323694 139.93306 C 55.995873 140.80859 55.657325 141.69385 55.571285 141.89987 C 55.485213 142.10587 55.077923 143.15929 54.666431 144.24081 C 54.254938 145.32237 53.409257 147.5132 52.786959 149.10976 C 52.164672 150.70631 51.139531 153.36109 50.509062 155.00914 C 49.878581 156.6572 48.771734 159.52264 48.049264 161.37671 C 47.326793 163.23077 46.479848 165.42166 46.167208 166.24567 C 45.854556 167.06971 45.439694 168.10138 45.2453 168.53803 C 45.050917 168.97467 44.891975 169.39601 44.89235 169.47441 C 44.892794 169.55278 44.561779 170.45976 44.156478 171.48979 C 43.3033 173.65809 41.529061 178.25603 40.398568 181.22821 C 39.967614 182.36125 38.955376 184.97399 38.149609 187.03406 C 37.343843 189.09414 36.250104 191.91703 35.71875 193.30758 C 34.534734 196.40607 33.173189 199.94302 31.969108 203.04652 C 29.951762 208.24625 28.398562 212.24354 27.584363 214.33317 C 27.11204 215.54538 26.7255 216.58836 26.7255 216.65086 C 26.7255 216.71332 26.522987 217.23832 26.275399 217.81771 C 26.027822 218.39712 25.571038 219.54546 25.259957 220.36949 C 24.948865 221.19351 24.172872 223.21626 23.536031 224.86431 C 22.899177 226.51238 22.005641 228.82985 21.550106 230.01438 C 21.094581 231.19892 20.597809 232.44496 20.446297 232.78321 C 20.294785 233.12146 20.170862 233.48048 20.170862 233.58109 C 20.170862 233.68174 20.010219 234.12166 19.813778 234.55829 C 19.617335 234.99494 19.103853 236.27885 18.672762 237.41187 C 17.535794 240.40019 16.17266 243.94087 14.923637 247.15029 C 14.322347 248.69535 13.563725 250.67604 13.237952 251.55157 C 12.912168 252.4271 12.484809 253.50082 12.288139 253.93747 C 12.09148 254.37411 11.930538 254.77314 11.930538 254.82424 C 11.930538 254.91 10.611886 258.35244 8.3777832 264.09913 C 7.8772368 265.38666 7.0316959 267.57806 6.4988281 268.9686 C 4.6048032 273.91117 3.6476478 276.37349 3.4054769 276.9278 C 3.2704793 277.23681 2.9928578 277.95342 2.7884603 278.51995 C 1.726639 281.46297 1.0054185 283.31396 0.85834554 283.47314 C 0.76792484 283.57101 0.69401449 283.76211 0.69401449 283.8974 C 0.69401449 284.09605 1.8726916 284.13377 6.8874349 284.09377 L 13.080855 284.04468 L 13.423987 283.20184 C 13.612497 282.73833 14.036977 281.64289 14.367598 280.76736 C 14.698231 279.89183 15.077503 278.92249 15.210441 278.61348 C 15.34339 278.30449 16.015063 276.577 16.702856 274.77444 C 17.673336 272.23103 19.719061 267.99454 25.837699 255.8588 C 30.174071 247.258 33.812198 240.03234 33.922477 239.80138 C 34.157751 239.30884 34.503541 239.22555 34.317285 239.7063 C 34.247441 239.88656 34.121882 240.37123 34.038232 240.78324 C 33.954595 241.19526 33.613458 242.71204 33.280139 244.15409 C 32.946809 245.59615 32.609878 247.07089 32.531348 247.43141 C 32.452879 247.79192 32.115574 249.26668 31.782039 250.70873 C 31.147747 253.451 31.001959 254.09496 30.698901 255.48466 C 30.245972 257.56152 29.294225 261.74111 28.865422 263.5374 C 28.255859 266.09094 28.127329 266.64792 27.654643 268.78101 C 27.351904 270.14714 23.58054 282.02057 22.880774 283.81058 C 22.76065 284.11782 23.073238 284.13821 27.882536 284.13821 L 33.011938 284.13821 L 33.687349 282.1249 C 34.058804 281.0176 35.139442 277.71004 36.088753 274.77444 C 37.038076 271.83884 38.386682 267.70932 39.08547 265.59774 C 39.784246 263.48618 41.050177 259.60933 41.898735 256.98276 C 42.747282 254.35617 43.927224 250.73208 44.520797 248.92951 C 44.549493 248.84236 44.642301 248.55756 44.674792 248.45874 A 68.29845 68.29845 0 0 1 39.224479 234.60945 C 39.13327 234.88777 39.079575 235.0752 38.983667 235.36341 C 36.917782 241.57166 36.427893 242.74413 37.105229 239.85874 C 37.357606 238.78361 37.625838 237.60426 38.726318 232.75117 A 68.29845 68.29845 0 0 1 36.733675 216.68341 A 68.29845 68.29845 0 0 1 58.446045 166.81359 L 59.380355 164.46696 L 60.813342 164.46696 C 60.930405 164.46696 61.01271 164.47467 61.123918 164.47678 A 68.29845 68.29845 0 0 1 80.681897 152.97309 C 77.625873 152.93874 75.979858 152.89317 75.979858 152.82323 C 75.979858 152.70242 76.392359 151.37505 76.896082 149.87354 C 77.399804 148.37203 78.155629 146.04805 78.575566 144.709 C 78.995503 143.36996 80.087278 139.99855 81.001774 137.21746 C 81.916275 134.43637 83.357872 130.01209 84.205713 127.38551 C 85.053554 124.75891 85.942545 122.10413 86.181303 121.48612 L 86.615385 120.36268 L 105.17859 120.31462 L 123.74128 120.26708 L 124.01362 120.87634 C 124.16334 121.21161 124.97387 123.63496 125.81454 126.26154 C 126.6552 128.88813 127.91267 132.76495 128.6092 134.87652 C 130.05407 139.25663 132.27013 146.05198 132.97586 148.26692 C 133.2384 149.09093 133.66892 150.38452 133.93239 151.14116 C 134.19586 151.8978 134.41143 152.63516 134.41143 152.77982 C 134.41143 152.88542 133.25482 152.94738 129.66289 152.98601 A 68.29845 68.29845 0 0 1 149.08031 164.49642 C 149.28136 164.49735 149.47146 164.49456 149.69319 164.50417 C 150.96398 164.55925 150.99062 164.57125 151.30601 165.21576 C 151.4234 165.45566 151.73582 166.23377 152.12973 167.2301 A 68.29845 68.29845 0 0 1 173.33051 216.68341 A 68.29845 68.29845 0 0 1 173.08711 221.33068 C 173.10393 221.36836 173.20815 221.63934 173.21682 221.65572 C 173.34135 221.89092 173.36188 222.04309 173.03543 222.31305 A 68.29845 68.29845 0 0 1 171.51666 232.08299 C 171.63564 232.59936 171.65153 232.72489 171.85411 233.57282 C 172.06328 234.44835 172.4084 235.96514 172.6215 236.94368 C 172.83461 237.92221 173.08204 239.01816 173.17134 239.37867 C 173.26064 239.73919 173.3905 240.39198 173.4597 240.82974 C 173.5292 241.26751 173.55702 241.62498 173.52222 241.62298 C 173.40951 241.61799 172.06166 237.46756 170.99628 234.02654 A 68.29845 68.29845 0 0 1 165.58266 248.08046 C 166.11084 249.68912 166.88492 252.05413 167.7572 254.73536 C 168.81275 257.97996 170.4951 263.12087 171.49599 266.15946 C 172.49688 269.19807 173.58467 272.52691 173.9129 273.55695 C 174.24114 274.58697 175.14958 277.38913 175.9319 279.78396 L 177.35455 284.13821 L 182.49635 284.13821 C 187.31674 284.13821 187.63062 284.11781 187.51259 283.81058 C 186.75428 281.83679 183.03511 270.13528 182.73562 268.78101 C 182.26645 266.65935 182.13929 266.10687 181.52587 263.5374 C 181.26766 262.45587 180.71651 260.05381 180.30114 258.19974 C 179.88578 256.34569 179.37762 254.11278 179.17201 253.23726 C 178.9664 252.36172 178.665 251.01307 178.50228 250.24054 C 178.33955 249.46802 177.96901 247.82459 177.67908 246.58857 C 177.38914 245.35251 176.96568 243.49844 176.73753 242.4684 C 176.50937 241.43837 176.24682 240.35113 176.15462 240.05253 C 175.93766 239.34979 175.9375 239.06321 176.15411 239.29392 C 176.24598 239.39177 179.94552 246.67785 184.37531 255.48466 C 189.34846 265.37174 192.80127 272.46402 193.40111 274.02513 C 194.93066 278.0059 196.59176 282.28113 196.96679 283.20184 L 197.31044 284.04468 L 203.50386 284.09377 C 207.64886 284.12679 209.69728 284.07988 209.69728 283.95114 C 209.69728 283.84535 209.62031 283.61222 209.52571 283.43335 C 209.21193 282.84002 208.57487 281.33535 208.57487 281.19059 C 208.57533 281.11221 208.24487 280.20524 207.84106 279.17521 C 207.43724 278.14517 206.67069 276.16499 206.13729 274.77444 C 204.51692 270.55029 200.77992 260.89427 200.52006 260.26008 C 200.43563 260.05408 199.93113 258.74798 199.3992 257.35742 C 198.1281 254.03455 197.26809 251.80145 195.68366 247.71253 C 193.69793 242.58791 192.12922 238.51206 191.50304 236.85014 C 191.19255 236.02609 190.78196 234.97271 190.59043 234.5092 C 190.13892 233.41648 188.25626 228.55381 187.03768 225.3325 C 186.03452 222.68066 184.30402 218.19997 184.0358 217.56036 C 183.94939 217.35435 183.45873 216.09027 182.94594 214.75123 C 182.43315 213.41218 181.5073 211.01012 180.88818 209.41357 C 180.26907 207.81702 179.32952 205.37346 178.80046 203.9829 C 178.27139 202.59236 177.24682 199.93758 176.52359 198.08352 C 175.80036 196.22945 174.88523 193.86943 174.49012 192.83939 C 172.26329 187.03425 171.45271 184.93451 171.30841 184.59907 C 171.16219 184.25916 170.05465 181.3902 168.12721 176.35874 C 166.81508 172.93353 165.46682 169.43498 165.29482 169.00829 C 165.20139 168.77653 165.04699 168.39721 164.95169 168.16545 C 164.85641 167.9337 164.42762 166.81698 163.99878 165.68394 C 163.28435 163.7963 162.67681 162.2193 160.0662 155.47733 C 156.15368 145.37314 154.79 141.84529 154.1663 140.21418 C 153.89061 139.49315 153.32787 138.06042 152.91573 137.0304 C 152.50359 136.00036 151.87127 134.35696 151.51065 133.37842 C 151.15003 132.39988 150.34755 130.2931 149.72781 128.69654 C 149.10808 127.09999 148.11316 124.52927 147.51658 122.98422 C 146.91998 121.43918 145.83387 118.6489 145.10329 116.78357 C 144.3727 114.91825 143.77737 113.27485 143.78037 113.1316 C 143.7833 112.98836 144.26797 112.58241 144.85731 112.22933 C 150.21382 109.02036 153.74821 103.66289 154.73939 97.249878 C 155.14361 94.634531 155.04206 92.557193 154.35802 89.461206 C 153.60476 86.051835 151.06468 81.779712 148.22971 79.153308 C 146.87951 77.902442 144.44391 76.263187 142.96078 75.607271 C 141.72545 75.060957 139.18673 74.198055 138.81478 74.198055 C 138.66607 74.198055 138.45736 74.035038 138.35073 73.835803 C 138.06397 73.300006 138.10428 67.851903 138.3993 67.268762 C 138.56136 66.948437 139.10187 66.600742 140.11134 66.168054 C 142.75423 65.035303 142.75352 65.035372 153.5374 65.028072 C 161.19607 65.022887 163.43312 64.969168 163.57141 64.78726 C 163.80848 64.475415 164.16047 63.466498 165.31859 59.777747 C 165.8522 58.078189 166.77747 55.212738 167.3748 53.410177 C 167.97211 51.607615 169.11248 48.110124 169.90849 45.638041 C 170.7045 43.165956 171.39562 41.037885 171.44432 40.909131 C 171.51503 40.722131 158.19162 40.675037 105.2158 40.675037 z M 55.495321 48.389294 L 63.525838 48.450273 L 65.024455 49.05437 C 65.848476 49.386458 66.957707 49.951867 67.489937 50.311141 C 68.553886 51.029341 69.986521 52.592697 70.648401 53.757959 C 71.139456 54.622468 71.859696 56.480122 71.859696 56.881799 C 71.859696 57.119012 70.395717 57.155684 60.928064 57.155684 L 49.996431 57.155684 L 48.591349 52.894963 C 47.818735 50.551633 47.249027 48.565518 47.325277 48.481278 C 47.401528 48.396979 51.078304 48.355654 55.495321 48.389294 z M 154.89597 48.391361 C 159.31299 48.356566 162.99242 48.397039 163.07222 48.481278 C 163.19222 48.608023 161.77916 53.252023 160.67495 56.359867 L 160.39228 57.155684 L 149.46168 57.155684 C 139.99524 57.155684 138.5316 57.119009 138.5316 56.881799 C 138.5316 56.340455 139.35267 54.417553 140.07207 53.274784 C 141.29533 51.331626 143.02218 49.983667 145.60352 48.956702 L 146.86545 48.454924 L 154.89597 48.391361 z M 105.18841 48.427535 C 111.54021 48.426593 117.89192 48.511849 118.54005 48.684367 C 119.5591 48.955612 121.13421 49.661797 121.9569 50.216056 C 122.85267 50.819563 124.44474 52.471052 125.07092 53.446867 C 125.66374 54.370695 126.5693 56.765356 126.42019 57.015125 C 126.3249 57.174744 84.151162 57.211725 83.991772 57.052332 C 83.864322 56.924878 84.265244 55.561213 84.745732 54.488147 C 85.914012 51.879086 88.841445 49.484097 91.835221 48.687984 C 92.484707 48.515333 98.836617 48.428477 105.18841 48.427535 z M 105.18531 64.99965 C 109.64773 65.004902 114.1159 65.105827 114.855 65.29834 C 118.34578 66.20757 121.36274 68.979411 122.46178 72.287061 C 122.65706 72.874756 122.86638 74.156833 122.92738 75.136499 L 123.03848 76.917786 L 121.72332 77.895504 C 118.33252 80.416936 115.80045 84.033819 114.41214 88.33776 C 114.14633 89.161793 113.91422 89.858703 113.89692 89.886503 C 113.85201 89.958243 97.084177 90.035151 96.720194 89.965051 C 96.553458 89.93293 96.36203 89.639642 96.29283 89.309794 C 95.998563 87.906969 94.5971 84.745972 93.597904 83.231612 C 92.252913 81.193173 90.389681 79.176191 88.67159 77.898604 L 87.354358 76.918819 L 87.455127 75.226416 C 87.581229 73.112714 87.970096 71.753955 88.862276 70.306303 C 90.463301 67.708455 92.681806 66.039415 95.549723 65.275602 C 96.266122 65.0848 100.7229 64.994398 105.18531 64.99965 z M 72.140816 79.16106 L 72.140816 82.891064 C 72.140816 85.236875 72.0707 86.644425 71.951681 86.684115 C 71.847604 86.71882 70.630076 85.612898 69.246419 84.226383 C 66.774039 81.748912 66.736951 81.69897 67.071875 81.328886 C 67.5715 80.776799 70.805266 79.222712 71.5238 79.189482 L 72.140816 79.16106 z M 138.25048 79.16106 L 138.86749 79.189482 C 139.58603 79.222712 142.81979 80.776799 143.31942 81.328886 C 143.65435 81.698971 143.61712 81.74852 141.14539 84.22535 C 139.7621 85.611506 138.56747 86.746126 138.49077 86.746126 C 138.20625 86.746126 138.14037 85.816115 138.19467 82.53088 L 138.25048 79.16106 z M 121.40706 85.060441 C 121.53121 85.060441 121.93735 85.397957 122.30985 85.810266 C 122.98212 86.554577 122.98733 86.571789 122.98733 88.244743 L 122.98733 89.929911 L 121.53573 89.931978 L 121.53573 89.932495 C 120.73745 89.933914 119.89555 89.985417 119.66505 90.047217 C 118.69428 90.307403 118.97765 88.918912 120.40557 86.418498 C 120.83204 85.671722 121.28291 85.060441 121.40706 85.060441 z M 63.263839 85.142607 C 63.463195 85.019402 70.174528 91.530481 70.174528 91.847107 C 70.174528 91.925444 67.973657 91.989734 65.28387 91.989734 L 60.393213 91.989734 L 60.525505 91.099866 C 60.783949 89.359435 62.507453 85.61008 63.263839 85.142607 z M 147.12745 85.142607 C 147.88384 85.61008 149.60734 89.359435 149.86579 91.099866 L 149.99808 91.989734 L 145.10742 91.989734 C 142.41762 91.989734 140.21676 91.925407 140.21676 91.847107 C 140.21676 91.530481 146.92809 85.019402 147.12745 85.142607 z M 88.938241 85.148291 C 89.005379 85.132369 89.065015 85.134527 89.117041 85.154492 C 89.546633 85.31934 91.383675 89.032097 91.306055 89.578512 C 91.235582 90.074374 91.280767 90.066414 89.042627 89.979004 L 87.403967 89.914925 L 87.403967 88.229757 L 87.403967 86.544071 L 88.107284 85.790629 C 88.465109 85.407018 88.736826 85.196058 88.938241 85.148291 z M 60.393213 96.859204 L 65.28387 96.859204 C 67.973657 96.859204 70.174528 96.923014 70.174528 97.001314 C 70.174528 97.079602 68.626308 98.690104 66.733911 100.58042 L 63.292778 104.01742 L 62.621501 103.00612 C 61.830165 101.81391 60.712625 99.010354 60.525505 97.748556 L 60.393213 96.859204 z M 145.10742 96.859204 L 149.99808 96.859204 L 149.86579 97.748556 C 149.69129 98.923645 148.75731 101.32429 147.94291 102.69141 C 147.58352 103.29473 147.19357 103.7885 147.07578 103.7885 C 146.84436 103.7885 140.21676 97.226813 140.21676 96.997697 C 140.21676 96.921499 142.41762 96.859204 145.10742 96.859204 z M 96.572917 98.731958 L 105.19565 98.731958 L 113.81838 98.731958 L 113.97961 99.153121 C 114.06815 99.384877 114.32819 100.1643 114.55735 100.88531 C 115.2292 102.99909 116.52 105.45373 117.83208 107.11181 C 118.50427 107.96127 119.05423 108.69867 119.05423 108.75047 C 119.05423 108.80217 112.8179 108.84504 105.19565 108.84504 C 97.573372 108.84504 91.337061 108.79073 91.337061 108.72463 C 91.337061 108.65847 91.701987 108.17381 92.148381 107.64769 C 93.755952 105.75299 95.003636 103.46218 95.830843 100.88531 C 96.062289 100.1643 96.323883 99.384877 96.412203 99.153121 L 96.572917 98.731958 z M 87.497502 98.825492 L 89.464307 98.825492 L 91.430595 98.825492 L 91.370133 99.293681 C 91.292734 99.891895 89.999111 102.59832 89.467924 103.27328 C 89.244998 103.55654 88.993875 103.7885 88.910335 103.7885 C 88.826803 103.7885 88.450516 103.44746 88.074211 103.03092 L 87.390015 102.27386 L 87.443758 100.54942 L 87.497502 98.825492 z M 118.9607 98.825492 L 120.92699 98.825492 L 122.89379 98.825492 L 122.94753 100.54942 L 123.00128 102.27386 L 122.31656 103.03092 L 122.31708 103.03092 C 121.94077 103.44746 121.56446 103.7885 121.48096 103.7885 C 121.04842 103.7885 119.15509 100.3289 119.02116 99.293681 L 118.9607 98.825492 z M 70.041203 103.97557 C 70.198371 103.97557 69.968806 104.69834 69.243319 106.49066 C 68.870964 107.41059 68.4856 108.18658 68.38704 108.21458 C 68.124897 108.28914 66.803158 107.55732 66.803158 107.33763 C 66.803158 107.14849 69.859054 103.97557 70.041203 103.97557 z M 140.29893 104.01794 C 140.41727 103.8996 143.58813 107.0625 143.58813 107.29888 C 143.58813 107.39029 143.26031 107.64906 142.86001 107.87404 C 142.05693 108.32539 141.96547 108.34897 141.83579 108.13914 C 141.55345 107.68231 140.21733 104.09954 140.29893 104.01794 z M 76.736401 120.36268 C 77.163167 120.36268 77.053772 120.81353 75.53234 125.32517 C 74.750792 127.64273 72.361506 134.80638 70.223104 141.24409 L 66.334969 152.94932 L 65.070964 153.00461 C 64.375681 153.03501 63.806958 153.02134 63.806958 152.97464 C 63.806958 152.86864 66.50758 145.76488 66.985059 144.61495 C 67.714768 142.8576 69.239427 138.89707 69.238668 138.76052 C 69.238281 138.68216 69.397234 138.26079 69.591618 137.82415 C 69.786 137.38751 70.198801 136.35631 70.509391 135.5323 C 71.501391 132.90037 72.071875 131.42691 72.322717 130.84989 C 72.581378 130.25493 73.017021 129.12489 74.848145 124.29526 C 76.196258 120.73958 76.377374 120.36268 76.736401 120.36268 z M 133.65489 120.36268 C 134.01365 120.36268 134.19409 120.73782 135.5447 124.29526 C 136.1704 125.9433 137.27365 128.80877 137.99623 130.66283 C 138.71882 132.51689 139.63224 134.8764 140.02608 135.90643 C 140.41994 136.93647 141.05414 138.57987 141.43581 139.55841 C 143.12236 143.88238 146.58433 152.89881 146.58433 152.96741 C 146.58433 153.12895 144.16536 153.03277 144.06304 152.86715 C 144.00329 152.77047 141.80109 146.17557 139.16928 138.21224 C 136.53746 130.2489 134.3183 123.5649 134.2378 123.35888 C 133.38679 121.17954 133.22798 120.36268 133.65489 120.36268 z M 35.527547 226.83318 C 35.682052 226.83286 36.049236 227.02508 36.343518 227.26055 L 36.878886 227.68894 L 33.299776 234.84458 C 31.331425 238.78022 29.679376 242.00022 29.628166 242.00022 C 29.427774 242.00022 29.555275 241.47497 30.082918 240.12746 C 30.385418 239.35492 31.150975 237.37475 31.784106 235.7267 C 32.417251 234.07864 33.005767 232.56135 33.092037 232.35533 C 33.178291 232.14933 33.698566 230.82265 34.248039 229.40719 C 34.914608 227.69005 35.340106 226.83355 35.527547 226.83318 z M 174.86375 226.83318 C 175.14072 226.83396 175.60529 227.93946 178.6046 235.7267 C 179.23937 237.37475 180.10085 239.58997 180.5187 240.64991 C 180.93655 241.70988 181.23255 242.62271 181.17705 242.67821 C 181.12149 242.73379 179.37296 239.38501 177.2915 235.23629 L 173.50724 227.69308 L 174.04519 227.26261 C 174.3409 227.02597 174.70924 226.83281 174.86375 226.83318 z M 29.479854 242.25446 C 29.513792 242.26744 29.534631 242.30115 29.534631 242.35265 C 29.534631 242.45564 29.450559 242.59229 29.347563 242.65599 C 29.244502 242.71959 29.160494 242.68715 29.160494 242.58416 C 29.160494 242.48115 29.244568 242.34494 29.347563 242.28134 C 29.399094 242.24953 29.445917 242.24149 29.479854 242.25446 z " /><g
       id="g15329"
       transform="matrix(0.48784607,0,0,0.48784607,-71.006326,130.42843)"
       inkscape:label="emblem"
       style="display:inline"><circle
         style="fill:none;stroke:#000000;stroke-width:3.36377;stroke-linecap:round;stroke-linejoin:round;stroke-dasharray:none"
         id="circle15323"
         cx="360.8486"
         cy="176.80812"
         r="140"
         inkscape:label="circle" /><path
         id="path15325"
         style="display:inline;fill:#000000;fill-opacity:1;stroke:none;stroke-width:0.601311;stroke-linecap:butt;stroke-linejoin:miter;stroke-miterlimit:4;stroke-dasharray:none;stroke-dashoffset:0;stroke-opacity:1"
         d="m 330.93281,66.060809 c -31.88968,20.32833 -59.1087,48.416861 -78.39558,81.044601 l 23.65478,18.40334 c 8.98599,-11.91606 18.56534,-23.26352 28.70113,-34.02093 L 439.8582,271.19627 c 7.23963,-5.77484 13.7659,-12.22269 19.48627,-19.29204 L 316.7819,119.39243 c 10.76609,-10.50325 22.09581,-20.38486 33.95878,-29.610031 z"
         sodipodi:nodetypes="ccccccccc"
         inkscape:label="hammer" /><path
         style="fill:#000000;fill-opacity:1;stroke:none;stroke-width:0.18364;stroke-linecap:butt;stroke-linejoin:miter;stroke-miterlimit:4;stroke-dasharray:none;stroke-dashoffset:0;stroke-opacity:1"
         d="m 259.73371,248.98458 c 5.62782,2.45055 10.74518,4.62442 16.86278,5.35916 0,0 -0.10639,1.15482 0.15022,1.15626 19.08347,0.10727 33.1519,-10.72864 44.66678,-19.42882 0.95076,-0.71837 2.96954,-1.99038 2.96954,-1.99038 l 5.35921,-5.085 2.45019,-3.23017 0.11819,-1.05079 0.82576,0.22032 49.03028,-55.31115 1.03547,-0.12218 0.83131,0.72168 c 0.65058,0.24795 1.93431,-0.58068 2.37558,-1.11777 l 34.08949,-38.50415 c 2.48651,-0.21549 3.07948,-0.33358 3.51996,-2.62837 l -1.2367,-1.46697 c 0.12804,-0.59292 0.0422,-1.32441 -0.15786,-1.8522 l 0.41485,-0.47903 c 0,0 5.26883,-5.70555 5.47487,-6.24967 0.18235,-0.48155 0.0819,-0.56989 -0.0842,-0.94236 -0.47589,-1.06677 -1.57247,-3.13169 -1.57247,-3.13169 l 7.93224,-8.87189 1.42233,-0.35164 9.68631,-10.86128 0.29415,-2.255991 5.95601,-7.34168 -0.63382,-2.41253 -7.38204,7.83134 -2.00403,0.13747 -9.6744,10.871871 -0.18562,1.45335 -7.90008,8.90055 c 0,0 -2.17741,-0.85167 -3.29186,-1.20162 -0.38912,-0.12219 -0.48843,-0.21181 -0.94579,0.0248 -0.51678,0.26731 -5.5781,6.15771 -5.5781,6.15771 l -0.42809,0.46724 c -0.54729,-0.13803 -1.2838,-0.13905 -1.85805,0.0563 l -1.59955,-1.05967 c -2.22886,0.70165 -2.63022,1.49594 -2.55814,3.99073 l -34.9451,38.93746 c -0.4827,0.50019 -0.54224,1.41055 -0.22112,2.02827 l 0.7227,0.64931 0.22614,1.01199 -48.9873,55.86472 0.0254,0.77444 -2.45649,1.84588 -1.23323,1.34602 -4.5802,5.39215 c -9.24191,12.92008 -21.43752,22.11536 -39.78872,22.74233 l -0.14861,0.89922 c -5.03446,-1.05628 -10.24229,-2.31643 -14.80205,-4.8735"
         id="path15327"
         sodipodi:nodetypes="ccccccssccccccccccccccccssccccccccccccccssccccccccc"
         inkscape:label="t245" /></g></g></svg>
