<?xml version="1.0" encoding="UTF-8" standalone="no"?>
<!-- Created with Inkscape (http://www.inkscape.org/) -->

<svg
   width="288.99557mm"
   height="96.237778mm"
   viewBox="0 0 288.99557 96.237778"
   version="1.1"
   id="svg5"
   inkscape:version="1.2.1 (9c6d41e410, 2022-07-14, custom)"
   sodipodi:docname="t245_vector.svg"
   xml:space="preserve"
   xmlns:inkscape="http://www.inkscape.org/namespaces/inkscape"
   xmlns:sodipodi="http://sodipodi.sourceforge.net/DTD/sodipodi-0.dtd"
   xmlns:xlink="http://www.w3.org/1999/xlink"
   xmlns="http://www.w3.org/2000/svg"
   xmlns:svg="http://www.w3.org/2000/svg"><sodipodi:namedview
     id="namedview7"
     pagecolor="#ffffff"
     bordercolor="#999999"
     borderopacity="1"
     inkscape:showpageshadow="0"
     inkscape:pageopacity="0"
     inkscape:pagecheckerboard="0"
     inkscape:deskcolor="#d1d1d1"
     inkscape:document-units="mm"
     showgrid="false"
     inkscape:zoom="0.64693624"
     inkscape:cx="762.82633"
     inkscape:cy="257.36694"
     inkscape:window-width="1993"
     inkscape:window-height="1218"
     inkscape:window-x="0"
     inkscape:window-y="0"
     inkscape:window-maximized="0"
     inkscape:current-layer="layer1" /><defs
     id="defs2"><inkscape:path-effect
       effect="bspline"
       id="path-effect333"
       is_visible="true"
       lpeversion="1"
       weight="33.333333"
       steps="2"
       helper_size="0"
       apply_no_weight="true"
       apply_with_weight="true"
       only_selected="false" /></defs><g
     inkscape:label="Layer 1"
     inkscape:groupmode="layer"
     id="layer1"
     transform="translate(53.546959,-102.40546)"><image
       width="288.99557"
       height="96.237778"
       preserveAspectRatio="none"
       xlink:href="p1030650_color_corr.jpg"
       id="image210"
       x="-53.546959"
       y="102.40546"
       style="display:none"
       sodipodi:insensitive="true" /><path
       style="fill:#ff0000;fill-opacity:1;stroke:#ff0000;stroke-width:0.2;stroke-linecap:butt;stroke-linejoin:miter;stroke-miterlimit:4;stroke-dasharray:none;stroke-dashoffset:0;stroke-opacity:1"
       d="m -47.028876,150.92059 c 2.172701,6.32213 4.192035,12.0308 8.102896,17.48386 0,0 -1.005603,0.76419 -0.817958,0.97132 13.954037,15.40316 33.0058749,18.72802 48.4640111,21.57364 1.2763428,0.23496 3.7830559,0.92021 3.7830559,0.92021 l 8.026213,0.56234 4.396524,-0.40898 0.930766,-0.67819 0.43061,0.8252 80.488248,-1.32193 0.85993,0.74159 0.0321,1.19852 c 0.27954,0.70484 1.88941,1.12605 2.64535,1.08525 l 55.99973,-0.95424 c 2.00243,1.83815 2.53352,2.22743 4.70034,0.89281 l 0.26812,-2.07237 c 0.5703,-0.33344 1.09459,-0.94049 1.37119,-1.48947 l 0.68989,-0.0193 c 0,0 8.45802,0.0332 9.04655,-0.20166 0.52085,-0.20786 0.51788,-0.3535 0.69474,-0.76097 0.50651,-1.16698 1.35788,-3.56677 1.35788,-3.56677 l 12.96018,-0.15759 1.32881,0.88344 15.84818,-0.2127 2.02772,-1.42399 10.27743,-0.61872 1.47097,-2.28392 -11.7198,-0.16615 -1.58481,-1.50811 -15.84793,0.23005 -1.30362,0.92021 -12.95953,0.20449 c 0,0 -0.91807,-2.37507 -1.45698,-3.52745 -0.18817,-0.40237 -0.18927,-0.54805 -0.71572,-0.74127 -0.59486,-0.21832 -9.04866,0.0511 -9.04866,0.0511 h -0.69015 c -0.29182,-0.54104 -0.83287,-1.13321 -1.41226,-1.45059 l -0.3259,-2.06407 c -2.20326,-1.27358 -3.13637,-1.0115 -5.08668,0.88186 l -56.9769,0.58636 c -0.75678,-0.0196 -1.53163,0.60236 -1.79137,1.31474 l 0.0103,1.05806 -0.64624,0.92614 -80.90116,1.76372 -0.603229,0.59013 -3.289557,-0.61453 h -1.988193 l -7.699733,0.28919 c -17.1744834,2.08423 -33.531009,-0.94379 -47.535905,-15.21872 l -0.831427,0.54223 c -2.855769,-4.81986 -5.67539,-9.92892 -6.976753,-15.47176"
       id="path452-3"
       sodipodi:nodetypes="ccccccssccccccccccccccccssccccccccccccccssccccccccc" /></g></svg>
